<svg xmlns="http://www.w3.org/2000/svg" viewBox="0 0 200 200">
  <defs>
    <linearGradient id="logoGrad" x1="0%" y1="0%" x2="100%" y2="100%">
      <stop offset="0%" style="stop-color:#667eea;stop-opacity:1" />
      <stop offset="50%" style="stop-color:#764ba2;stop-opacity:1" />
      <stop offset="100%" style="stop-color:#f093fb;stop-opacity:1" />
    </linearGradient>
    <filter id="glow">
      <feGaussianBlur stdDeviation="3" result="coloredBlur"/>
      <feMerge> 
        <feMergeNode in="coloredBlur"/>
        <feMergeNode in="SourceGraphic"/>
      </feMerge>
    </filter>
  </defs>
  
  <!-- Background Circle -->
  <circle cx="100" cy="100" r="90" fill="url(#logoGrad)" filter="url(#glow)"/>
  
  <!-- AI Brain Icon -->
  <g fill="white" opacity="0.9">
    <!-- Brain outline -->
    <path d="M70 60c-15 0-25 10-25 25v30c0 15 10 25 25 25h60c15 0 25-10 25-25V85c0-15-10-25-25-25H70z" stroke="white" stroke-width="2" fill="none"/>
    
    <!-- Neural network nodes -->
    <circle cx="85" cy="80" r="4"/>
    <circle cx="115" cy="80" r="4"/>
    <circle cx="100" cy="100" r="5"/>
    <circle cx="80" cy="120" r="4"/>
    <circle cx="120" cy="120" r="4"/>
    
    <!-- Neural connections -->
    <line x1="85" y1="80" x2="100" y2="100" stroke="white" stroke-width="2" opacity="0.7"/>
    <line x1="115" y1="80" x2="100" y2="100" stroke="white" stroke-width="2" opacity="0.7"/>
    <line x1="100" y1="100" x2="80" y2="120" stroke="white" stroke-width="2" opacity="0.7"/>
    <line x1="100" y1="100" x2="120" y2="120" stroke="white" stroke-width="2" opacity="0.7"/>
  </g>
  
  <!-- Hiring/People Icon -->
  <g fill="white" opacity="0.8">
    <!-- People silhouettes -->
    <circle cx="60" cy="150" r="8"/>
    <rect x="52" y="158" width="16" height="20" rx="3"/>
    
    <circle cx="100" cy="145" r="10"/>
    <rect x="90" y="155" width="20" height="25" rx="4"/>
    
    <circle cx="140" cy="150" r="8"/>
    <rect x="132" y="158" width="16" height="20" rx="3"/>
  </g>
  
  <!-- AI Sparkles -->
  <g fill="white" opacity="0.6">
    <path d="M50 40l2 6 6 2-6 2-2 6-2-6-6-2 6-2z"/>
    <path d="M150 50l1.5 4.5 4.5 1.5-4.5 1.5-1.5 4.5-1.5-4.5-4.5-1.5 4.5-1.5z"/>
    <path d="M160 120l1 3 3 1-3 1-1 3-1-3-3-1 3-1z"/>
  </g>
</svg>